<?xml version="1.0" encoding="UTF-8"?>
<svg id="Objects" xmlns="http://www.w3.org/2000/svg" viewBox="0 0 500 500">
  <defs>
    <style>
      .cls-1 {
        fill: #fff;
      }

      .cls-2 {
        fill: #f36e30;
      }
    </style>
  </defs>
  <rect class="cls-1" x="217.75" y="56.64" width="64.5" height="386.72" transform="translate(-103.55 249.99) rotate(-45)"/>
  <path class="cls-2" d="M250,90.04c-22.89,0-44.65,4.85-64.35,13.51l87.89,87.89,47.84-12.82-12.82,47.85,87.88,87.89c8.67-19.7,13.52-41.45,13.52-64.35,0-88.34-71.62-159.96-159.97-159.96Z"/>
  <path class="cls-2" d="M226.46,308.56l-47.84,12.82,12.82-47.85-87.88-87.89c-8.67,19.7-13.52,41.45-13.52,64.35,0,88.34,71.62,159.96,159.96,159.96,22.9,0,44.66-4.84,64.35-13.51l-87.88-87.89Z"/>
</svg>