<?xml version="1.0" encoding="UTF-8"?>
<svg id="Objects" xmlns="http://www.w3.org/2000/svg" viewBox="0 0 500 500">
  <defs>
    <style>
      .cls-1 {
        fill: #fff;
      }

      .cls-2 {
        fill: #f36e30;
      }
    </style>
  </defs>
  <polygon class="cls-2" points="308.05 95.61 308.05 120.35 349.59 95.61 308.05 95.61"/>
  <polygon class="cls-2" points="308.05 404.39 353.38 404.39 308.05 377.83 308.05 404.39"/>
  <polygon class="cls-2" points="308.05 332.96 391.95 382.11 391.95 115.45 308.05 165.41 308.05 332.96"/>
  <polygon class="cls-1" points="190.87 278.64 274.77 327.79 274.77 170.66 190.87 220.62 190.87 278.64"/>
  <polygon class="cls-1" points="274.77 95.61 190.87 95.61 190.87 175.55 274.77 125.6 274.77 95.61"/>
  <polygon class="cls-1" points="190.87 404.39 274.77 404.39 274.77 372.67 190.87 323.52 190.87 404.39"/>
  <polygon class="cls-2" points="162.71 268.66 108.05 300.68 108.05 198.31 162.71 230.86 162.71 268.66"/>
  <polygon class="cls-2" points="108.05 149.41 162.71 149.41 162.71 201.5 108.05 168.95 108.05 149.41"/>
  <polygon class="cls-2" points="162.71 350.59 108.05 350.59 108.05 329.92 162.71 297.9 162.71 350.59"/>
</svg>