<?xml version="1.0" encoding="UTF-8"?>
<svg id="Objects" xmlns="http://www.w3.org/2000/svg" viewBox="0 0 500 500">
  <defs>
    <style>
      .cls-1 {
        fill: #fff;
      }

      .cls-2 {
        fill: #f36e30;
      }
    </style>
  </defs>
  <path class="cls-2" d="M250,409.53c-87.97,0-159.53-71.57-159.53-159.53S162.03,90.47,250,90.47s159.53,71.57,159.53,159.53-71.57,159.53-159.53,159.53ZM250,144.37c-58.25,0-105.63,47.38-105.63,105.63s47.38,105.63,105.63,105.63,105.63-47.38,105.63-105.63-47.39-105.63-105.63-105.63Z"/>
  <path class="cls-2" d="M183.25,105.16c-21.82-11.54-49.48-8.13-67.85,10.24-18.37,18.37-21.78,46.02-10.24,67.85,15.91-34.39,43.7-62.18,78.09-78.09Z"/>
  <path class="cls-2" d="M316.75,394.84c21.82,11.54,49.48,8.13,67.85-10.24,18.37-18.37,21.78-46.02,10.24-67.84-15.92,34.39-43.7,62.17-78.09,78.09Z"/>
  <path class="cls-1" d="M210.66,250c0-21.73,17.61-39.33,39.34-39.33s39.33,17.61,39.33,39.33-17.61,39.34-39.33,39.34-39.34-17.61-39.34-39.34Z"/>
</svg>