<?xml version="1.0" encoding="UTF-8"?>
<svg id="Objects" xmlns="http://www.w3.org/2000/svg" viewBox="0 0 500 500">
  <defs>
    <style>
      .cls-1 {
        fill: #fff;
      }

      .cls-2 {
        fill: #f36e30;
      }
    </style>
  </defs>
  <path class="cls-1" d="M250,333.34c-45.95,0-83.35-37.39-83.35-83.34s37.39-83.34,83.35-83.34,83.34,37.39,83.34,83.34-37.39,83.34-83.34,83.34ZM250,208.6c-22.82,0-41.4,18.57-41.4,41.39s18.57,41.4,41.4,41.4,41.39-18.57,41.39-41.4-18.57-41.39-41.39-41.39Z"/>
  <path class="cls-2" d="M210.08,146.01l20.02-48.06c-75.21,9.79-133.49,74.23-133.49,152.05h41.95c0-47.38,29.74-87.91,71.52-103.99Z"/>
  <path class="cls-2" d="M289.01,145.65c42.26,15.85,72.43,56.63,72.43,104.35h41.95c0-77.83-58.28-142.26-133.49-152.05v.19l-.08-.19-16.74,40.2c5.61.22,11.23.96,16.81,2.23,6.59,1.2,12.98,2.97,19.11,5.27Z"/>
  <path class="cls-1" d="M289.92,353.99l-20.02,48.06c75.21-9.79,133.49-74.22,133.49-152.06h-41.95c0,47.38-29.74,87.91-71.53,104Z"/>
  <path class="cls-1" d="M210.99,354.35c-42.26-15.84-72.43-56.63-72.43-104.36h-41.95c0,77.84,58.28,142.27,133.49,152.06v-.19l.08.19,16.74-40.2c-5.61-.23-11.23-.97-16.81-2.24-6.59-1.19-12.98-2.97-19.11-5.27Z"/>
</svg>