<?xml version="1.0" encoding="UTF-8"?>
<svg id="Objects" xmlns="http://www.w3.org/2000/svg" viewBox="0 0 500 500">
  <defs>
    <style>
      .cls-1 {
        fill: #fff;
      }

      .cls-2 {
        fill: #f36e30;
      }
    </style>
  </defs>
  <path class="cls-2" d="M250,75.45c-30.22,0-58.65,7.69-83.44,21.2l15.81,59.02c19.05-13.68,42.39-21.76,67.62-21.76,64.11,0,116.09,51.97,116.09,116.09s-51.98,116.08-116.09,116.08-116.09-51.97-116.09-116.08c0-20.36,5.26-39.49,14.47-56.13l-57.58-15.43c-9.84,21.84-15.35,46.05-15.35,71.56,0,96.4,78.15,174.55,174.55,174.55s174.55-78.15,174.55-174.55-78.15-174.55-174.55-174.55Z"/>
  <path class="cls-1" d="M182.38,155.67c-13.97,10.03-25.63,23.08-34,38.2l47.66,12.77-13.66-50.97Z"/>
  <path class="cls-1" d="M250,198.14c-10.61,0-20.48,3.02-28.92,8.16l9.29,34.67-31.81-8.52c-2.75,6.59-4.27,13.82-4.27,21.4,0,30.77,24.94,55.72,55.71,55.72s55.72-24.95,55.72-55.72-24.95-55.71-55.72-55.71Z"/>
</svg>