<?xml version="1.0" encoding="UTF-8"?>
<svg id="Capa_1" xmlns="http://www.w3.org/2000/svg" version="1.1" viewBox="0 0 112.2 112.2">
  <!-- Generator: Adobe Illustrator 29.7.1, SVG Export Plug-In . SVG Version: 2.1.1 Build 8)  -->
  <defs>
    <style>
      .st0 {
        fill: #fff;
      }
    </style>
  </defs>
  <path class="st0" d="M47.87,47.49c0-4.4-2.98-4.4-2.98-4.4h-12.3v9.44h11.53c1.99,0,3.74-.64,3.74-5.04Z"/>
  <path class="st0" d="M56.1,0C25.12,0,0,25.12,0,56.1s25.12,56.1,56.1,56.1,56.1-25.12,56.1-56.1S87.08,0,56.1,0ZM67.12,38.08h17.44v5.2h-17.44v-5.2ZM58.32,65.36c0,12.89-13.43,12.48-13.43,12.48h-21.98v-42.26h21.98c6.68,0,11.95,3.7,11.95,11.25s-6.44,8.04-6.44,8.04c8.49,0,7.92,10.49,7.92,10.49ZM90.91,64.68h-21.88c0,7.84,7.42,7.34,7.42,7.34,7.03,0,6.79-4.54,6.79-4.54h7.42c0,12.07-14.46,11.25-14.46,11.25-17.33,0-16.22-16.16-16.22-16.16,0-.08.02-16.22,16.22-16.22,17.11,0,14.7,18.34,14.7,18.34Z"/>
  <path class="st0" d="M44.89,59.03h-12.3v11.31h11.68c1.75-.04,5.06-.55,5.06-5.49.02-5.86-4.44-5.82-4.44-5.82Z"/>
  <path class="st0" d="M76.37,52.53c-6.52,0-7.42,6.5-7.42,6.5h13.86s.1-6.5-6.44-6.5Z"/>
</svg>