<?xml version="1.0" encoding="UTF-8"?>
<svg id="Capa_1" xmlns="http://www.w3.org/2000/svg" version="1.1" viewBox="0 0 512 512">
  <!-- Generator: Adobe Illustrator 29.7.1, SVG Export Plug-In . SVG Version: 2.1.1 Build 8)  -->
  <defs>
    <style>
      .st0 {
        fill: #fff;
      }
    </style>
  </defs>
  <path class="st0" d="M256,3.11C114.62,3.11,0,117.73,0,259.11c0,127.78,93.62,233.69,216,252.89h0v-178.89h-65v-74h65v-56.4c0-6.02.34-11.78.99-17.28,1.97-16.51,6.83-30.71,14.18-42.43.82-1.3,1.66-2.57,2.54-3.82,16.68-23.58,44.25-36.08,78.97-36.08h0c27.13,0,55.48,4.69,57.22,4.99.06,0,.08.01.08.01v63h-32.28c-.34,0-.66.02-.99.02-.65,0-1.3.01-1.93.04-5.23.21-9.8.99-13.82,2.23-1.1.34-2.18.7-3.19,1.11-.04.02-.07.03-.11.05-12.15,4.92-18.3,14.58-20.59,25.53-.22,1.04-.4,2.1-.55,3.16-.01.1-.03.2-.05.3-.33,2.48-.49,5-.49,7.53v48.02h71l-11.35,74h-59.65v178.89h0c122.38-19.2,216-125.11,216-252.89C512,117.73,397.38,3.11,256,3.11Z"/>
</svg>