<?xml version="1.0" encoding="UTF-8"?>
<svg id="Layer_1" xmlns="http://www.w3.org/2000/svg" version="1.1" viewBox="0 0 1000 1000">
  <!-- Generator: Adobe Illustrator 29.7.1, SVG Export Plug-In . SVG Version: 2.1.1 Build 8)  -->
  <defs>
    <style>
      .st0 {
        fill: #fff;
      }
    </style>
  </defs>
  <path class="st0" d="M500,386.2c-62.8,0-113.8,50.9-113.8,113.8s51,113.8,113.8,113.8,113.8-50.9,113.8-113.8-51-113.8-113.8-113.8Z"/>
  <path class="st0" d="M766,298.7c-6.2-15.9-13.6-27.3-25.5-39.2-11.9-11.9-23.3-19.3-39.2-25.5-12-4.7-30.1-10.3-63.4-11.8-36-1.7-46.8-2-137.9-2s-101.9.3-137.9,2c-33.3,1.6-51.4,7.1-63.4,11.8-15.9,6.2-27.3,13.6-39.2,25.5-11.9,11.9-19.3,23.3-25.5,39.2-4.7,12-10.3,30.1-11.8,63.4-1.7,36-2,46.8-2,137.9s.4,101.9,2,137.9c1.6,33.3,7.1,51.4,11.8,63.4,6.2,15.9,13.6,27.3,25.5,39.2s23.3,19.3,39.2,25.5c12,4.7,30.1,10.3,63.4,11.8,36,1.7,46.8,2,137.9,2s101.9-.4,137.9-2c33.3-1.6,51.4-7.1,63.4-11.8,15.9-6.2,27.3-13.6,39.2-25.5s19.3-23.3,25.5-39.2c4.7-12,10.3-30.1,11.8-63.4,1.7-36,2-46.8,2-137.9s-.4-101.9-2-137.9c-1.6-33.3-7.1-51.4-11.8-63.4ZM500,675.3c-96.8,0-175.3-78.5-175.3-175.3s78.5-175.3,175.3-175.3,175.3,78.5,175.3,175.3-78.5,175.3-175.3,175.3ZM682.2,358.8c-22.64,0-41-18.36-41-41s18.36-41,41-41,41,18.36,41,41-18.36,41-41,41Z"/>
  <path class="st0" d="M500,0C223.9,0,0,223.9,0,500s223.9,500,500,500,500-223.9,500-500S776.1,0,500,0ZM839.3,640.6c-1.7,36.4-7.5,61.2-15.9,82.9-8.8,22.5-20.4,41.5-39.4,60.5-18.9,19-38,30.7-60.3,39.4-21.8,8.5-46.6,14.2-82.9,15.9-36.4,1.7-48,2.1-140.7,2.1s-104.3-.4-140.7-2.1c-36.4-1.7-61.2-7.5-82.9-15.9-22.5-8.8-41.5-20.4-60.5-39.4-19-18.9-30.7-38-39.4-60.3-8.5-21.8-14.2-46.6-15.9-82.9-1.7-36.4-2.1-48-2.1-140.7s.4-104.3,2.1-140.7c1.7-36.4,7.5-61.2,15.9-82.9,8.8-22.5,20.4-41.5,39.4-60.5,18.9-19,38-30.7,60.4-39.3,21.8-8.5,46.6-14.2,82.9-15.9,36.4-1.7,48-2.1,140.7-2.1s104.3.4,140.6,2c36.4,1.7,61.2,7.5,82.9,15.9,22.5,8.8,41.5,20.4,60.5,39.4,19,18.9,30.7,38,39.4,60.3,8.5,21.8,14.2,46.6,15.9,82.9,1.7,36.4,2.1,48,2.1,140.7s-.4,104.3-2.1,140.7Z"/>
</svg>