<?xml version="1.0" encoding="UTF-8"?>
<svg id="Capa_1" xmlns="http://www.w3.org/2000/svg" version="1.1" viewBox="0 0 112.2 112.2">
  <!-- Generator: Adobe Illustrator 29.7.1, SVG Export Plug-In . SVG Version: 2.1.1 Build 8)  -->
  <defs>
    <style>
      .st0 {
        fill: #fff;
      }
    </style>
  </defs>
  <path class="st0" d="M62.09,49.26v-.13s-.06.09-.09.13h.09Z"/>
  <path class="st0" d="M56.1,0C25.12,0,0,25.11,0,56.1s25.12,56.1,56.1,56.1,56.1-25.12,56.1-56.1S87.08,0,56.1,0ZM41.27,83.74h-13.41v-40.33h13.41v40.33ZM34.57,37.91h-.09c-4.5,0-7.41-3.1-7.41-6.97s3-6.97,7.59-6.97,7.41,3.01,7.5,6.97c0,3.87-2.91,6.97-7.58,6.97ZM89.62,83.74h-13.41v-21.58c0-5.42-1.94-9.12-6.79-9.12-3.71,0-5.91,2.49-6.88,4.9-.35.86-.44,2.06-.44,3.27v22.52h-13.41s.18-36.55,0-40.33h13.41v5.71c1.78-2.74,4.96-6.66,12.09-6.66,8.82,0,15.44,5.76,15.44,18.15v23.13Z"/>
</svg>