<?xml version="1.0" encoding="UTF-8"?>
<svg id="Layer_1" xmlns="http://www.w3.org/2000/svg" version="1.1" viewBox="0 0 512.88 512.88">
  <!-- Generator: Adobe Illustrator 29.7.1, SVG Export Plug-In . SVG Version: 2.1.1 Build 8)  -->
  <defs>
    <style>
      .st0 {
        fill: #fff;
      }
    </style>
  </defs>
  <path class="st0" d="M256.44,0C115.2,0,.44,114.76.44,256c0,105.05,62.68,195.09,153.6,234.81-.88-17.65,0-39.72,4.41-59.14,5.3-21.19,32.66-139.48,32.66-139.48,0,0-7.95-16.77-7.95-40.61,0-37.96,22.07-66.21,49.43-66.21,22.95,0,34.43,17.65,34.43,38.84,0,22.95-15.01,58.26-22.95,90.92-6.18,27.37,13.24,49.43,40.61,49.43,48.55,0,81.21-62.68,81.21-135.95,0-56.5-37.96-97.99-106.81-97.99-77.68,0-126.23,58.26-126.23,122.7,0,22.07,6.18,37.96,16.77,50.32,4.41,5.3,5.3,7.95,3.53,14.12-.88,4.41-4.41,15.89-5.3,20.3-1.77,6.18-7.06,8.83-13.24,6.18-36.19-15.01-52.08-53.85-52.08-97.99,0-72.39,60.91-159.78,182.73-159.78,97.99,0,162.43,70.62,162.43,146.54,0,100.63-55.61,175.67-137.71,175.67-27.37,0-53.85-15.01-62.68-31.78,0,0-15.01,59.14-17.65,70.62-5.3,19.42-15.89,39.72-25.6,54.73,22.95,7.06,47.67,10.59,72.39,10.59,141.24,0,256-114.76,256-256S397.68,0,256.44,0"/>
</svg>