<?xml version="1.0" encoding="UTF-8"?>
<svg id="Layer_1" xmlns="http://www.w3.org/2000/svg" version="1.1" viewBox="0 0 500 500">
  <!-- Generator: Adobe Illustrator 29.7.1, SVG Export Plug-In . SVG Version: 2.1.1 Build 8)  -->
  <defs>
    <style>
      .st0 {
        fill: #9f74ff;
      }
    </style>
  </defs>
  <path class="st0" d="M428.65,59.5H71.36c-6.55,0-11.86,5.31-11.86,11.86v87.71h246.85c6.55,0,11.86,5.31,11.86,11.86v50.2c0,6.55-5.31,11.86-11.86,11.86H59.5v195.66c0,6.55,5.31,11.86,11.86,11.86h357.29c6.55,0,11.86-5.31,11.86-11.86V71.36c0-6.55-5.31-11.86-11.86-11.86h0ZM271.5,352.52c0,6.55-5.31,11.86-11.86,11.86h-128.14v-73.92h128.14c6.55,0,11.86,5.31,11.86,11.86v50.2h0Z"/>
</svg>